{
  "accessors": [
    {
      "bufferView": 2,
      "componentType": 5126,
      "count": 65532,
      "max": [
        1.8549569845199585,
        1.4986939430236816,
        0.8456480503082275
      ],
      "min": [
        0.0,
        0.0,
        0.0
      ],
      "type": "VEC3"
    },
    {
      "bufferView": 2,
      "byteOffset": 786384,
      "componentType": 5126,
      "count": 65532,
      "max": [
        0.9999241232872009,
        0.9999590516090393,
        0.9999819397926331
      ],
      "min": [
        -0.9999424815177917,
        -0.9996598958969116,
        -0.9999784231185913
      ],
      "type": "VEC3"
    },
    {
      "bufferView": 1,
      "componentType": 5126,
      "count": 65532,
      "max": [
        0.958774983882904,
        0.6526389718055725
      ],
      "min": [
        0.009339000098407269,
        0.0035000001080334187
      ],
      "type": "VEC2"
    },
    {
      "bufferView": 0,
      "componentType": 5125,
      "count": 345480,
      "type": "SCALAR"
    },
    {
      "bufferView": 2,
      "byteOffset": 1572768,
      "componentType": 5126,
      "count": 65532,
      "max": [
        2.831850051879883,
        1.9434599876403809,
        1.0325582027435303
      ],
      "min": [
        0.15449798107147217,
        0.2079770565032959,
        0.09429001808166504
      ],
      "type": "VEC3"
    },
    {
      "bufferView": 2,
      "byteOffset": 2359152,
      "componentType": 5126,
      "count": 65532,
      "max": [
        0.999549925327301,
        0.9998013377189636,
        0.9999796152114868
      ],
      "min": [
        -0.9999424815177917,
        -0.9999963641166687,
        -0.9999898076057434
      ],
      "type": "VEC3"
    },
    {
      "bufferView": 1,
      "byteOffset": 524256,
      "componentType": 5126,
      "count": 65532,
      "max": [
        0.9577270150184631,
        0.6212120056152344
      ],
      "min": [
        0.022915000095963478,
        0.04162900149822235
      ],
      "type": "VEC2"
    },
    {
      "bufferView": 0,
      "byteOffset": 1381920,
      "componentType": 5125,
      "count": 327189,
      "type": "SCALAR"
    },
    {
      "bufferView": 2,
      "byteOffset": 3145536,
      "componentType": 5126,
      "count": 65532,
      "max": [
        2.831382989883423,
        3.6817121505737305,
        1.7903993129730225
      ],
      "min": [
        0.6499639749526978,
        0.6428450345993042,
        0.14669108390808105
      ],
      "type": "VEC3"
    },
    {
      "bufferView": 2,
      "byteOffset": 3931920,
      "componentType": 5126,
      "count": 65532,
      "max": [
        0.9999418258666992,
        0.9998013377189636,
        0.9999783635139465
      ],
      "min": [
        -0.9998686909675598,
        -0.9999966025352478,
        -0.9999982714653015
      ],
      "type": "VEC3"
    },
    {
      "bufferView": 1,
      "byteOffset": 1048512,
      "componentType": 5126,
      "count": 65532,
      "max": [
        0.8700649738311768,
        0.9949989914894104
      ],
      "min": [
        0.019423000514507294,
        0.052319999784231186
      ],
      "type": "VEC2"
    },
    {
      "bufferView": 0,
      "byteOffset": 2690676,
      "componentType": 5125,
      "count": 352932,
      "type": "SCALAR"
    },
    {
      "bufferView": 2,
      "byteOffset": 4718304,
      "componentType": 5126,
      "count": 65532,
      "max": [
        1.6762170791625977,
        3.7001099586486816,
        1.8010480403900146
      ],
      "min": [
        0.6452440023422241,
        1.4166380167007446,
        0.6343951225280762
      ],
      "type": "VEC3"
    },
    {
      "bufferView": 2,
      "byteOffset": 5504688,
      "componentType": 5126,
      "count": 65532,
      "max": [
        0.9997240304946899,
        0.9999905824661255,
        0.9999955892562866
      ],
      "min": [
        -0.9999949932098389,
        -0.9999300837516785,
        -0.9999980926513672
      ],
      "type": "VEC3"
    },
    {
      "bufferView": 1,
      "byteOffset": 1572768,
      "componentType": 5126,
      "count": 65532,
      "max": [
        0.9957799911499023,
        0.9960470199584961
      ],
      "min": [
        0.003317000111564994,
        0.003645000047981739
      ],
      "type": "VEC2"
    },
    {
      "bufferView": 0,
      "byteOffset": 4102404,
      "componentType": 5125,
      "count": 340287,
      "type": "SCALAR"
    },
    {
      "bufferView": 2,
      "byteOffset": 6291072,
      "componentType": 5126,
      "count": 65532,
      "max": [
        2.8261148929595947,
        3.6964690685272217,
        1.7468183040618896
      ],
      "min": [
        0.04050499200820923,
        0.0016620159149169922,
        0.0068700313568115234
      ],
      "type": "VEC3"
    },
    {
      "bufferView": 2,
      "byteOffset": 7077456,
      "componentType": 5126,
      "count": 65532,
      "max": [
        0.9999496936798096,
        0.9999802112579346,
        0.9999569654464722
      ],
      "min": [
        -0.9999459385871887,
        -0.9999409914016724,
        -0.999997615814209
      ],
      "type": "VEC3"
    },
    {
      "bufferView": 1,
      "byteOffset": 2097024,
      "componentType": 5126,
      "count": 65532,
      "max": [
        0.9963700175285339,
        0.9990959763526917
      ],
      "min": [
        0.0024510000366717577,
        0.006442999932914972
      ],
      "type": "VEC2"
    },
    {
      "bufferView": 0,
      "byteOffset": 5463552,
      "componentType": 5125,
      "count": 305835,
      "type": "SCALAR"
    },
    {
      "bufferView": 2,
      "byteOffset": 7863840,
      "componentType": 5126,
      "count": 41872,
      "max": [
        2.5625569820404053,
        2.527107000350952,
        1.2060720920562744
      ],
      "min": [
        0.4660699963569641,
        0.0,
        0.0
      ],
      "type": "VEC3"
    },
    {
      "bufferView": 2,
      "byteOffset": 8366304,
      "componentType": 5126,
      "count": 41872,
      "max": [
        0.9998566508293152,
        0.9999802112579346,
        0.9999480247497559
      ],
      "min": [
        -0.9999898076057434,
        -0.9999552369117737,
        -0.9999982714653015
      ],
      "type": "VEC3"
    },
    {
      "bufferView": 1,
      "byteOffset": 2621280,
      "componentType": 5126,
      "count": 41872,
      "max": [
        0.959945023059845,
        0.9908789992332458
      ],
      "min": [
        0.0038660001009702682,
        0.004987999796867371
      ],
      "type": "VEC2"
    },
    {
      "bufferView": 0,
      "byteOffset": 6686892,
      "componentType": 5125,
      "count": 128277,
      "type": "SCALAR"
    }
  ],
  "asset": {
    "extras": {
      "author": "Archéomatique (https://sketchfab.com/archeomatique)",
      "license": "CC-BY-NC-4.0 (http://creativecommons.org/licenses/by-nc/4.0/)",
      "source": "https://sketchfab.com/3d-models/christ-the-redeemer-rio-de-janeiro-635854a864204f4389ec92b79921cf58",
      "title": "Christ the redeemer, Rio de Janeiro"
    },
    "generator": "Sketchfab-12.65.0",
    "version": "2.0"
  },
  "bufferViews": [
    {
      "buffer": 0,
      "byteLength": 7200000,
      "name": "floatBufferViews",
      "target": 34963
    },
    {
      "buffer": 0,
      "byteLength": 2956256,
      "byteOffset": 7200000,
      "byteStride": 8,
      "name": "floatBufferViews",
      "target": 34962
    },
    {
      "buffer": 0,
      "byteLength": 8868768,
      "byteOffset": 10156256,
      "byteStride": 12,
      "name": "floatBufferViews",
      "target": 34962
    }
  ],
  "buffers": [
    {
      "byteLength": 19025024,
      "uri": "scene.bin"
    }
  ],
  "extensionsUsed": [
    "KHR_materials_unlit"
  ],
  "images": [
    {
      "uri": "textures/material_0_baseColor.jpeg"
    }
  ],
  "materials": [
    {
      "doubleSided": true,
      "extensions": {
        "KHR_materials_unlit": {}
      },
      "name": "material_0",
      "pbrMetallicRoughness": {
        "baseColorTexture": {
          "index": 0
        },
        "metallicFactor": 0.0
      }
    }
  ],
  "meshes": [
    {
      "name": "Object_0",
      "primitives": [
        {
          "attributes": {
            "NORMAL": 1,
            "POSITION": 0,
            "TEXCOORD_0": 2
          },
          "indices": 3,
          "material": 0,
          "mode": 4
        }
      ]
    },
    {
      "name": "Object_1",
      "primitives": [
        {
          "attributes": {
            "NORMAL": 5,
            "POSITION": 4,
            "TEXCOORD_0": 6
          },
          "indices": 7,
          "material": 0,
          "mode": 4
        }
      ]
    },
    {
      "name": "Object_2",
      "primitives": [
        {
          "attributes": {
            "NORMAL": 9,
            "POSITION": 8,
            "TEXCOORD_0": 10
          },
          "indices": 11,
          "material": 0,
          "mode": 4
        }
      ]
    },
    {
      "name": "Object_3",
      "primitives": [
        {
          "attributes": {
            "NORMAL": 13,
            "POSITION": 12,
            "TEXCOORD_0": 14
          },
          "indices": 15,
          "material": 0,
          "mode": 4
        }
      ]
    },
    {
      "name": "Object_4",
      "primitives": [
        {
          "attributes": {
            "NORMAL": 17,
            "POSITION": 16,
            "TEXCOORD_0": 18
          },
          "indices": 19,
          "material": 0,
          "mode": 4
        }
      ]
    },
    {
      "name": "Object_5",
      "primitives": [
        {
          "attributes": {
            "NORMAL": 21,
            "POSITION": 20,
            "TEXCOORD_0": 22
          },
          "indices": 23,
          "material": 0,
          "mode": 4
        }
      ]
    }
  ],
  "nodes": [
    {
      "children": [
        1
      ],
      "matrix": [
        0.9966648817062378,
        0.0816032886505127,
        1.8119569988986383e-17,
        0.0,
        0.07792624086141586,
        -0.9517551064491273,
        0.29679903388023354,
        0.0,
        0.024219777435064316,
        -0.29580917954444863,
        -0.9549399614334108,
        0.0,
        -0.05937931314110756,
        4.574889659881591,
        4.239645004272462,
        1.0
      ],
      "name": "Sketchfab_model"
    },
    {
      "children": [
        2,
        3,
        4,
        5,
        6,
        7
      ],
      "matrix": [
        1.0,
        0.0,
        0.0,
        0.0,
        0.0,
        1.0,
        0.0,
        0.0,
        0.0,
        0.0,
        1.0,
        0.0,
        -0.6886169910430908,
        -2.262655019760132,
        2.978864908218384,
        1.0
      ],
      "name": "model.obj.cleaner.gles"
    },
    {
      "mesh": 0,
      "name": "Object_2"
    },
    {
      "mesh": 1,
      "name": "Object_3"
    },
    {
      "mesh": 2,
      "name": "Object_4"
    },
    {
      "mesh": 3,
      "name": "Object_5"
    },
    {
      "mesh": 4,
      "name": "Object_6"
    },
    {
      "mesh": 5,
      "name": "Object_7"
    }
  ],
  "samplers": [
    {
      "magFilter": 9729,
      "minFilter": 9987,
      "wrapS": 10497,
      "wrapT": 10497
    }
  ],
  "scene": 0,
  "scenes": [
    {
      "name": "Sketchfab_Scene",
      "nodes": [
        0
      ]
    }
  ],
  "textures": [
    {
      "sampler": 0,
      "source": 0
    }
  ]
}
