{
  "accessors": [
    {
      "bufferView": 2,
      "componentType": 5126,
      "count": 65532,
      "max": [
        9.024643898010254,
        26.968704223632813,
        18.683380126953125
      ],
      "min": [
        -7.75473690032959,
        18.526025772094727,
        -14.011438369750977
      ],
      "type": "VEC3"
    },
    {
      "bufferView": 2,
      "byteOffset": 786384,
      "componentType": 5126,
      "count": 65532,
      "max": [
        0.9999989867210388,
        0.9984671473503113,
        0.9999991059303284
      ],
      "min": [
        -0.9999964833259583,
        -0.9999997615814209,
        -0.9999960064888
      ],
      "type": "VEC3"
    },
    {
      "bufferView": 1,
      "componentType": 5126,
      "count": 65532,
      "max": [
        0.9546279907226563,
        1.0
      ],
      "min": [
        3.5000000934815034e-05,
        0.0
      ],
      "type": "VEC2"
    },
    {
      "bufferView": 0,
      "componentType": 5125,
      "count": 371910,
      "type": "SCALAR"
    },
    {
      "bufferView": 2,
      "byteOffset": 1572768,
      "componentType": 5126,
      "count": 9378,
      "max": [
        1.8336939811706543,
        22.6038818359375,
        17.236427307128906
      ],
      "min": [
        -7.748763084411621,
        18.56815528869629,
        9.544647216796875
      ],
      "type": "VEC3"
    },
    {
      "bufferView": 2,
      "byteOffset": 1685304,
      "componentType": 5126,
      "count": 9378,
      "max": [
        0.999991774559021,
        0.8295453190803528,
        0.9136319756507874
      ],
      "min": [
        -0.9797744750976563,
        -0.9999997615814209,
        -0.9743686318397522
      ],
      "type": "VEC3"
    },
    {
      "bufferView": 1,
      "byteOffset": 524256,
      "componentType": 5126,
      "count": 9378,
      "max": [
        0.9417210221290588,
        0.9789490103721619
      ],
      "min": [
        0.1387840062379837,
        0.0024210000410676003
      ],
      "type": "VEC2"
    },
    {
      "bufferView": 0,
      "byteOffset": 1487640,
      "componentType": 5125,
      "count": 38868,
      "type": "SCALAR"
    },
    {
      "bufferView": 2,
      "byteOffset": 1797840,
      "componentType": 5126,
      "count": 65532,
      "max": [
        14.036327362060547,
        27.225656509399414,
        18.73337173461914
      ],
      "min": [
        -7.598240852355957,
        21.627456665039063,
        -13.80976676940918
      ],
      "type": "VEC3"
    },
    {
      "bufferView": 2,
      "byteOffset": 2584224,
      "componentType": 5126,
      "count": 65532,
      "max": [
        0.9999991655349731,
        0.999498724937439,
        0.9999899864196777
      ],
      "min": [
        -0.9999991655349731,
        -0.9999994039535522,
        -0.9999998211860657
      ],
      "type": "VEC3"
    },
    {
      "bufferView": 1,
      "byteOffset": 599280,
      "componentType": 5126,
      "count": 65532,
      "max": [
        0.9999269843101501,
        0.9614419937133789
      ],
      "min": [
        0.04131700098514557,
        0.010777999646961689
      ],
      "type": "VEC2"
    },
    {
      "bufferView": 0,
      "byteOffset": 1643112,
      "componentType": 5125,
      "count": 310299,
      "type": "SCALAR"
    },
    {
      "bufferView": 2,
      "byteOffset": 3370608,
      "componentType": 5126,
      "count": 65532,
      "max": [
        14.019373893737793,
        27.1627197265625,
        18.4851016998291
      ],
      "min": [
        -7.139019012451172,
        22.173824310302734,
        -13.823274612426758
      ],
      "type": "VEC3"
    },
    {
      "bufferView": 2,
      "byteOffset": 4156992,
      "componentType": 5126,
      "count": 65532,
      "max": [
        0.9999535083770752,
        0.9974242448806763,
        0.9999995231628418
      ],
      "min": [
        -0.9997329115867615,
        -0.9999998807907104,
        -0.9999656677246094
      ],
      "type": "VEC3"
    },
    {
      "bufferView": 1,
      "byteOffset": 1123536,
      "componentType": 5126,
      "count": 65532,
      "max": [
        0.9999750256538391,
        0.982384979724884
      ],
      "min": [
        0.0002229999954579398,
        0.0
      ],
      "type": "VEC2"
    },
    {
      "bufferView": 0,
      "byteOffset": 2884308,
      "componentType": 5125,
      "count": 289365,
      "type": "SCALAR"
    },
    {
      "bufferView": 2,
      "byteOffset": 4943376,
      "componentType": 5126,
      "count": 10825,
      "max": [
        13.999347686767578,
        27.225656509399414,
        2.0156240463256836
      ],
      "min": [
        -6.09851598739624,
        23.152400970458984,
        -3.2376890182495117
      ],
      "type": "VEC3"
    },
    {
      "bufferView": 2,
      "byteOffset": 5073276,
      "componentType": 5126,
      "count": 10825,
      "max": [
        0.9998225569725037,
        0.995501697063446,
        0.999995768070221
      ],
      "min": [
        -0.9999856352806091,
        -0.9999869465827942,
        -0.9999911785125732
      ],
      "type": "VEC3"
    },
    {
      "bufferView": 1,
      "byteOffset": 1647792,
      "componentType": 5126,
      "count": 10825,
      "max": [
        0.9713129997253418,
        0.9838719964027405
      ],
      "min": [
        0.0009889999637380242,
        0.09907399863004684
      ],
      "type": "VEC2"
    },
    {
      "bufferView": 0,
      "byteOffset": 4041768,
      "componentType": 5125,
      "count": 39375,
      "type": "SCALAR"
    }
  ],
  "asset": {
    "extras": {
      "author": "Ancient Art Archive (https://sketchfab.com/ancientartarchive)",
      "license": "CC-BY-4.0 (http://creativecommons.org/licenses/by/4.0/)",
      "source": "https://sketchfab.com/3d-models/petra-detail-8a725e4fe1654617bd75647ae65a5150",
      "title": "Petra Detail"
    },
    "generator": "Sketchfab-12.65.0",
    "version": "2.0"
  },
  "bufferViews": [
    {
      "buffer": 0,
      "byteLength": 4199268,
      "name": "floatBufferViews",
      "target": 34963
    },
    {
      "buffer": 0,
      "byteLength": 1734392,
      "byteOffset": 4199268,
      "byteStride": 8,
      "name": "floatBufferViews",
      "target": 34962
    },
    {
      "buffer": 0,
      "byteLength": 5203176,
      "byteOffset": 5933660,
      "byteStride": 12,
      "name": "floatBufferViews",
      "target": 34962
    }
  ],
  "buffers": [
    {
      "byteLength": 11136836,
      "uri": "scene.bin"
    }
  ],
  "extensionsUsed": [
    "KHR_materials_unlit"
  ],
  "images": [
    {
      "uri": "textures/PetraDetail_baseColor.jpeg"
    },
    {
      "uri": "textures/PetraDetail1_baseColor.jpeg"
    }
  ],
  "materials": [
    {
      "doubleSided": true,
      "extensions": {
        "KHR_materials_unlit": {}
      },
      "name": "PetraDetail",
      "pbrMetallicRoughness": {
        "baseColorTexture": {
          "index": 0
        },
        "metallicFactor": 0.0
      }
    },
    {
      "doubleSided": true,
      "extensions": {
        "KHR_materials_unlit": {}
      },
      "name": "PetraDetail1",
      "pbrMetallicRoughness": {
        "baseColorTexture": {
          "index": 1
        },
        "metallicFactor": 0.0
      }
    }
  ],
  "meshes": [
    {
      "name": "Object_0",
      "primitives": [
        {
          "attributes": {
            "NORMAL": 1,
            "POSITION": 0,
            "TEXCOORD_0": 2
          },
          "indices": 3,
          "material": 0,
          "mode": 4
        }
      ]
    },
    {
      "name": "Object_1",
      "primitives": [
        {
          "attributes": {
            "NORMAL": 5,
            "POSITION": 4,
            "TEXCOORD_0": 6
          },
          "indices": 7,
          "material": 0,
          "mode": 4
        }
      ]
    },
    {
      "name": "Object_2",
      "primitives": [
        {
          "attributes": {
            "NORMAL": 9,
            "POSITION": 8,
            "TEXCOORD_0": 10
          },
          "indices": 11,
          "material": 1,
          "mode": 4
        }
      ]
    },
    {
      "name": "Object_3",
      "primitives": [
        {
          "attributes": {
            "NORMAL": 13,
            "POSITION": 12,
            "TEXCOORD_0": 14
          },
          "indices": 15,
          "material": 1,
          "mode": 4
        }
      ]
    },
    {
      "name": "Object_4",
      "primitives": [
        {
          "attributes": {
            "NORMAL": 17,
            "POSITION": 16,
            "TEXCOORD_0": 18
          },
          "indices": 19,
          "material": 1,
          "mode": 4
        }
      ]
    }
  ],
  "nodes": [
    {
      "children": [
        1
      ],
      "matrix": [
        0.0019869475315035245,
        0.2381821213244848,
        5.28870550297011e-17,
        0.0,
        0.0,
        5.2888896045236123e-17,
        -0.2381904125213623,
        0.0,
        -0.2381821213244848,
        0.0019869475315035245,
        4.411909796394663e-19,
        0.0,
        5.475310802459717,
        -0.7996425032615662,
        -1.7755630371797752e-16,
        1.0
      ],
      "name": "Sketchfab_model"
    },
    {
      "children": [
        2,
        3,
        4,
        5,
        6
      ],
      "name": "PetraDetail.obj.cleaner.materialmerger.gles"
    },
    {
      "mesh": 0,
      "name": "Object_2"
    },
    {
      "mesh": 1,
      "name": "Object_3"
    },
    {
      "mesh": 2,
      "name": "Object_4"
    },
    {
      "mesh": 3,
      "name": "Object_5"
    },
    {
      "mesh": 4,
      "name": "Object_6"
    }
  ],
  "samplers": [
    {
      "magFilter": 9729,
      "minFilter": 9987,
      "wrapS": 10497,
      "wrapT": 10497
    }
  ],
  "scene": 0,
  "scenes": [
    {
      "name": "Sketchfab_Scene",
      "nodes": [
        0
      ]
    }
  ],
  "textures": [
    {
      "sampler": 0,
      "source": 0
    },
    {
      "sampler": 0,
      "source": 1
    }
  ]
}
